<svg width="381" height="64" viewBox="0 0 381 64" fill="none" xmlns="http://www.w3.org/2000/svg">
<path d="M6.4 28.7998H25.6L32 47.9998H0L6.4 28.7998Z" fill="#141414"/>
<path d="M11.2 19.1992L25.6 22.3992L32 41.5992L4.80005 38.3992L11.2 19.1992Z" fill="#99BBFF"/>
<path d="M18.4 6.39941L25.6 15.9994L32 35.1994L12 25.5994L18.4 6.39941Z" fill="#C2D6FF"/>
<path d="M48.4833 40.5992C47.7889 40.5992 47.3921 40.1776 47.3921 39.5576C47.3921 39.3344 47.3921 39.1112 47.6401 38.4168L52.3273 24.9504C52.8481 23.4624 53.3193 23.0408 54.4849 23.0408H54.6089C55.7745 23.0408 56.2457 23.4624 56.7665 24.9504L61.4785 38.392C61.7265 39.0864 61.7265 39.3096 61.7265 39.508C61.7265 40.1528 61.3297 40.5992 60.5857 40.5992C60.0401 40.5992 59.5689 40.3264 59.2465 39.4088L58.0561 35.8872H50.9633L49.7977 39.4088C49.4753 40.3512 49.0041 40.5992 48.4833 40.5992ZM51.6329 33.9032H57.3865L54.4849 25.2728L51.6329 33.9032ZM64.5098 40.624C63.989 40.624 63.5178 40.2024 63.5178 39.6568C63.5178 39.3096 63.6418 38.9128 64.0386 38.4168L67.3866 34.1512L64.3114 30.2576C63.8898 29.7368 63.7906 29.3896 63.7906 29.0672C63.7906 28.4968 64.237 28.0008 64.8322 28.0008C65.3282 28.0008 65.725 28.2736 66.1962 28.9184L68.8994 32.6136L71.677 28.8936C72.1482 28.2488 72.5698 27.976 73.041 27.976C73.5618 27.976 74.033 28.3728 74.033 28.968C74.033 29.2904 73.909 29.6624 73.4378 30.2576L70.3874 34.1512L73.7106 38.392C74.1074 38.888 74.2314 39.2104 74.2314 39.5328C74.2314 40.1528 73.785 40.624 73.1898 40.624C72.6938 40.624 72.2722 40.376 71.677 39.5576L68.8746 35.7136L65.9978 39.5576C65.353 40.4008 64.9562 40.624 64.5098 40.624ZM77.6797 40.5992C76.9605 40.5992 76.5389 40.128 76.5389 39.3096V29.2904C76.5389 28.472 76.9605 28.0008 77.6797 28.0008C78.4237 28.0008 78.8205 28.472 78.8205 29.2904V39.3096C78.8205 40.128 78.4237 40.5992 77.6797 40.5992ZM77.6797 26.1904C76.8365 26.1904 76.1669 25.5208 76.1669 24.7024C76.1669 23.884 76.8365 23.264 77.6797 23.264C78.5229 23.264 79.1677 23.884 79.1677 24.7024C79.1677 25.5208 78.5229 26.1904 77.6797 26.1904ZM87.1522 40.872C83.457 40.872 81.1258 38.02 81.1258 34.3C81.1258 30.58 83.457 27.728 87.1522 27.728C90.897 27.728 93.2282 30.58 93.2282 34.3C93.2282 38.02 90.897 40.872 87.1522 40.872ZM87.1522 38.7888C89.5082 38.7888 90.897 36.9288 90.897 34.3C90.897 31.6712 89.5082 29.8112 87.1522 29.8112C84.821 29.8112 83.457 31.6712 83.457 34.3C83.457 36.9288 84.821 38.7888 87.1522 38.7888ZM96.6064 40.5992C95.8872 40.5992 95.4656 40.128 95.4656 39.3096V29.2656C95.4656 28.4472 95.8872 27.976 96.6064 27.976C97.3256 27.976 97.7472 28.4472 97.7472 29.2656V30.208C98.4168 28.596 99.6072 27.728 101.244 27.728C102.906 27.728 104.17 28.6704 104.741 30.2328C105.286 28.6952 106.576 27.728 108.337 27.728C110.866 27.728 112.354 29.5136 112.354 32.3904V39.3096C112.354 40.128 111.933 40.5992 111.214 40.5992C110.47 40.5992 110.073 40.128 110.073 39.3096V32.7128C110.073 30.704 109.254 29.7368 107.717 29.7368C106.179 29.7368 105.063 30.8776 105.038 32.4896V39.3096C105.038 40.128 104.642 40.5992 103.922 40.5992C103.203 40.5992 102.782 40.128 102.782 39.3096V32.4896C102.782 30.704 101.889 29.7368 100.376 29.7368C98.888 29.7368 97.772 31.076 97.7472 32.936V39.3096C97.7472 40.128 97.3504 40.5992 96.6064 40.5992Z" fill="black"/>
<path d="M120.354 35.802V34.848H133.35V35.802H120.354ZM142.477 40.5V28.818H138.283V27.9H147.751V28.818H143.557V40.5H142.477ZM149.208 40.5V27.9H150.252V33.21C150.702 32.04 151.746 31.356 153.258 31.356C154.41 31.356 155.238 31.698 155.814 32.292C156.534 33.03 156.57 34.164 156.57 35.082V40.5H155.49V35.244C155.49 34.398 155.508 33.534 154.95 32.94C154.464 32.4 153.762 32.256 152.988 32.256C151.998 32.256 150.252 32.67 150.252 35.46V40.5H149.208ZM162.759 40.716C161.535 40.716 160.491 40.356 159.753 39.564C158.961 38.754 158.565 37.584 158.565 36.036C158.565 34.56 158.997 33.318 159.807 32.49C160.563 31.716 161.589 31.356 162.705 31.356C164.037 31.356 165.189 31.932 165.909 32.976C166.485 33.804 166.773 35.028 166.737 36.216H159.681C159.699 38.88 160.977 39.852 162.795 39.852C164.523 39.852 165.423 38.97 165.675 37.566L166.665 37.674C166.305 39.564 164.901 40.716 162.759 40.716ZM159.699 35.37H165.675C165.621 34.668 165.387 33.894 165.045 33.372C164.487 32.544 163.659 32.22 162.687 32.22C161.769 32.22 161.013 32.526 160.545 33.084C160.041 33.66 159.771 34.47 159.699 35.37ZM176.299 40.698C174.103 40.698 172.537 39.618 172.555 37.566L173.545 37.476C173.527 39.06 174.769 39.834 176.335 39.834C177.901 39.834 178.837 39.24 178.837 38.088C178.837 36.738 177.181 36.558 175.687 36.234C173.905 35.856 172.771 35.316 172.771 33.822C172.771 32.31 174.103 31.356 175.993 31.356C177.919 31.356 179.341 32.274 179.557 34.182L178.567 34.344C178.459 32.976 177.577 32.166 175.957 32.166C174.751 32.166 173.779 32.724 173.779 33.714C173.779 34.722 174.679 35.064 176.317 35.37C178.099 35.73 179.809 36.054 179.809 37.998C179.809 39.816 178.297 40.698 176.299 40.698ZM184.048 40.59C182.788 40.59 182.194 40.068 182.194 38.862V32.436H180.808V31.554H182.194V29.07H183.238V31.554H185.092V32.436H183.238V38.88C183.238 39.492 183.49 39.636 184.102 39.636C184.372 39.636 184.732 39.6 185.056 39.528L185.074 40.482C184.75 40.554 184.39 40.59 184.048 40.59ZM189.291 40.716C187.563 40.716 186.303 39.762 186.303 38.196C186.303 36.504 187.599 35.892 189.093 35.604L192.531 34.938C192.531 33.984 192.513 33.264 192.027 32.796C191.649 32.418 191.019 32.22 190.155 32.22C188.427 32.22 187.635 32.814 187.635 34.452L186.609 34.308C186.609 33.372 186.933 32.562 187.581 32.058C188.229 31.554 189.165 31.356 190.191 31.356C192.369 31.356 193.539 32.274 193.539 34.326V39.042C193.539 39.528 193.611 39.708 194.097 39.708C194.331 39.708 194.529 39.672 194.781 39.618L194.799 40.482C194.493 40.536 194.205 40.572 193.935 40.572C193.035 40.572 192.549 40.194 192.549 38.988C192.063 40.014 190.983 40.716 189.291 40.716ZM187.383 38.142C187.383 39.294 188.283 39.852 189.471 39.852C191.433 39.852 192.531 38.79 192.531 37.17V35.73L189.219 36.432C188.067 36.666 187.383 37.044 187.383 38.142ZM196.317 40.5V31.554H197.361V33.462C197.649 32.22 198.675 31.482 200.025 31.338C200.223 31.32 200.511 31.32 200.727 31.32L200.691 32.328C200.529 32.31 200.367 32.31 200.169 32.31C198.549 32.31 197.361 33.12 197.361 36.126V40.5H196.317ZM204.544 40.59C203.284 40.59 202.69 40.068 202.69 38.862V32.436H201.304V31.554H202.69V29.07H203.734V31.554H205.588V32.436H203.734V38.88C203.734 39.492 203.986 39.636 204.598 39.636C204.868 39.636 205.228 39.6 205.552 39.528L205.57 40.482C205.246 40.554 204.886 40.59 204.544 40.59ZM207.321 40.5V31.554H208.365V40.5H207.321ZM207.321 29.61V27.972H208.365V29.61H207.321ZM210.995 40.5V31.554H212.039V33.21C212.471 32.076 213.443 31.356 215.045 31.356C216.197 31.356 217.025 31.698 217.601 32.292C218.321 33.03 218.357 34.182 218.357 35.082V40.5H217.277V35.262C217.277 34.416 217.295 33.534 216.737 32.94C216.251 32.4 215.549 32.256 214.775 32.256C213.785 32.256 212.039 32.706 212.039 35.496V40.5H210.995ZM224.474 44.118C222.476 44.118 220.874 43.2 220.766 41.148L221.792 41.076C221.918 42.768 222.944 43.272 224.6 43.272C226.526 43.272 227.516 42.246 227.516 40.482V38.556C226.922 39.708 225.878 40.428 224.384 40.428C222.062 40.428 220.334 38.772 220.334 35.91C220.334 33.012 222.134 31.356 224.384 31.356C225.914 31.356 226.94 32.058 227.516 33.102V31.554H228.56V40.446C228.56 42.822 226.994 44.118 224.474 44.118ZM221.468 35.91C221.468 38.214 222.548 39.546 224.492 39.546C225.446 39.546 226.166 39.24 226.67 38.7C227.282 38.034 227.552 37.008 227.552 35.802C227.552 33.228 226.328 32.22 224.528 32.22C223.52 32.22 222.764 32.562 222.242 33.192C221.72 33.822 221.468 34.74 221.468 35.91ZM235.552 44.1V31.554H236.596V33.264C237.208 32.094 238.306 31.356 239.782 31.356C242.068 31.356 243.814 32.994 243.814 36.036C243.814 38.862 242.14 40.716 239.782 40.716C238.378 40.716 237.28 40.14 236.596 38.988V44.1H235.552ZM236.542 36.072C236.542 38.448 237.64 39.852 239.566 39.852C240.592 39.852 241.348 39.51 241.816 38.934C242.41 38.25 242.662 37.296 242.662 36.036C242.662 33.498 241.618 32.22 239.566 32.22C238.72 32.22 237.946 32.49 237.406 33.138C236.884 33.75 236.542 34.704 236.542 36.072ZM249.667 40.698C246.931 40.698 245.347 38.916 245.347 36.036C245.347 33.372 246.967 31.356 249.667 31.356C252.403 31.356 253.987 33.264 253.987 36.036C253.987 38.772 252.331 40.698 249.667 40.698ZM246.463 36.036C246.463 37.278 246.751 38.286 247.345 38.97C247.867 39.546 248.623 39.834 249.649 39.834C250.693 39.834 251.467 39.528 251.989 38.934C252.583 38.25 252.871 37.26 252.871 36.036C252.871 34.758 252.565 33.75 251.935 33.084C251.431 32.526 250.693 32.22 249.703 32.22C248.659 32.22 247.885 32.544 247.363 33.12C246.751 33.804 246.463 34.794 246.463 36.036ZM256.065 40.5V31.554H257.109V40.5H256.065ZM256.065 29.61V27.972H257.109V29.61H256.065ZM259.739 40.5V31.554H260.783V33.21C261.215 32.076 262.187 31.356 263.789 31.356C264.941 31.356 265.769 31.698 266.345 32.292C267.065 33.03 267.101 34.182 267.101 35.082V40.5H266.021V35.262C266.021 34.416 266.039 33.534 265.481 32.94C264.995 32.4 264.293 32.256 263.519 32.256C262.529 32.256 260.783 32.706 260.783 35.496V40.5H259.739ZM271.851 40.59C270.591 40.59 269.997 40.068 269.997 38.862V32.436H268.611V31.554H269.997V29.07H271.041V31.554H272.895V32.436H271.041V38.88C271.041 39.492 271.293 39.636 271.905 39.636C272.175 39.636 272.535 39.6 272.859 39.528L272.877 40.482C272.553 40.554 272.193 40.59 271.851 40.59ZM279.437 40.5V32.418H278.051V31.536H279.437V29.574C279.437 28.386 280.013 27.828 281.309 27.828C281.687 27.828 282.083 27.882 282.299 27.936L282.263 28.872C282.011 28.818 281.633 28.764 281.327 28.764C280.715 28.764 280.481 28.926 280.481 29.52V31.536H282.335V32.418H280.481V40.5H279.437ZM287.443 40.698C284.707 40.698 283.123 38.916 283.123 36.036C283.123 33.372 284.743 31.356 287.443 31.356C290.179 31.356 291.763 33.264 291.763 36.036C291.763 38.772 290.107 40.698 287.443 40.698ZM284.239 36.036C284.239 37.278 284.527 38.286 285.121 38.97C285.643 39.546 286.399 39.834 287.425 39.834C288.469 39.834 289.243 39.528 289.765 38.934C290.359 38.25 290.647 37.26 290.647 36.036C290.647 34.758 290.341 33.75 289.711 33.084C289.207 32.526 288.469 32.22 287.479 32.22C286.435 32.22 285.661 32.544 285.139 33.12C284.527 33.804 284.239 34.794 284.239 36.036ZM293.841 40.5V31.554H294.885V33.462C295.173 32.22 296.199 31.482 297.549 31.338C297.747 31.32 298.035 31.32 298.251 31.32L298.215 32.328C298.053 32.31 297.891 32.31 297.693 32.31C296.073 32.31 294.885 33.12 294.885 36.126V40.5H293.841ZM303.667 40.5V31.554H304.711V33.462C304.999 32.22 306.025 31.482 307.375 31.338C307.573 31.32 307.861 31.32 308.077 31.32L308.041 32.328C307.879 32.31 307.717 32.31 307.519 32.31C305.899 32.31 304.711 33.12 304.711 36.126V40.5H303.667ZM312.805 40.716C311.581 40.716 310.537 40.356 309.799 39.564C309.007 38.754 308.611 37.584 308.611 36.036C308.611 34.56 309.043 33.318 309.853 32.49C310.609 31.716 311.635 31.356 312.751 31.356C314.083 31.356 315.235 31.932 315.955 32.976C316.531 33.804 316.819 35.028 316.783 36.216H309.727C309.745 38.88 311.023 39.852 312.841 39.852C314.569 39.852 315.469 38.97 315.721 37.566L316.711 37.674C316.351 39.564 314.947 40.716 312.805 40.716ZM309.745 35.37H315.721C315.667 34.668 315.433 33.894 315.091 33.372C314.533 32.544 313.705 32.22 312.733 32.22C311.815 32.22 311.059 32.526 310.591 33.084C310.087 33.66 309.817 34.47 309.745 35.37ZM321.321 40.716C319.593 40.716 318.333 39.762 318.333 38.196C318.333 36.504 319.629 35.892 321.123 35.604L324.561 34.938C324.561 33.984 324.543 33.264 324.057 32.796C323.679 32.418 323.049 32.22 322.185 32.22C320.457 32.22 319.665 32.814 319.665 34.452L318.639 34.308C318.639 33.372 318.963 32.562 319.611 32.058C320.259 31.554 321.195 31.356 322.221 31.356C324.399 31.356 325.569 32.274 325.569 34.326V39.042C325.569 39.528 325.641 39.708 326.127 39.708C326.361 39.708 326.559 39.672 326.811 39.618L326.829 40.482C326.523 40.536 326.235 40.572 325.965 40.572C325.065 40.572 324.579 40.194 324.579 38.988C324.093 40.014 323.013 40.716 321.321 40.716ZM319.413 38.142C319.413 39.294 320.313 39.852 321.501 39.852C323.463 39.852 324.561 38.79 324.561 37.17V35.73L321.249 36.432C320.097 36.666 319.413 37.044 319.413 38.142ZM331.479 40.698C329.283 40.698 327.717 39.618 327.735 37.566L328.725 37.476C328.707 39.06 329.949 39.834 331.515 39.834C333.081 39.834 334.017 39.24 334.017 38.088C334.017 36.738 332.361 36.558 330.867 36.234C329.085 35.856 327.951 35.316 327.951 33.822C327.951 32.31 329.283 31.356 331.173 31.356C333.099 31.356 334.521 32.274 334.737 34.182L333.747 34.344C333.639 32.976 332.757 32.166 331.137 32.166C329.931 32.166 328.959 32.724 328.959 33.714C328.959 34.722 329.859 35.064 331.497 35.37C333.279 35.73 334.989 36.054 334.989 37.998C334.989 39.816 333.477 40.698 331.479 40.698ZM340.775 40.698C338.039 40.698 336.455 38.916 336.455 36.036C336.455 33.372 338.075 31.356 340.775 31.356C343.511 31.356 345.095 33.264 345.095 36.036C345.095 38.772 343.439 40.698 340.775 40.698ZM337.571 36.036C337.571 37.278 337.859 38.286 338.453 38.97C338.975 39.546 339.731 39.834 340.757 39.834C341.801 39.834 342.575 39.528 343.097 38.934C343.691 38.25 343.979 37.26 343.979 36.036C343.979 34.758 343.673 33.75 343.043 33.084C342.539 32.526 341.801 32.22 340.811 32.22C339.767 32.22 338.993 32.544 338.471 33.12C337.859 33.804 337.571 34.794 337.571 36.036ZM347.173 40.5V31.554H348.217V33.21C348.649 32.076 349.621 31.356 351.223 31.356C352.375 31.356 353.203 31.698 353.779 32.292C354.499 33.03 354.535 34.182 354.535 35.082V40.5H353.455V35.262C353.455 34.416 353.473 33.534 352.915 32.94C352.429 32.4 351.727 32.256 350.953 32.256C349.963 32.256 348.217 32.706 348.217 35.496V40.5H347.173ZM357.069 40.5V31.554H358.113V40.5H357.069ZM357.069 29.61V27.972H358.113V29.61H357.069ZM360.743 40.5V31.554H361.787V33.21C362.219 32.076 363.191 31.356 364.793 31.356C365.945 31.356 366.773 31.698 367.349 32.292C368.069 33.03 368.105 34.182 368.105 35.082V40.5H367.025V35.262C367.025 34.416 367.043 33.534 366.485 32.94C365.999 32.4 365.297 32.256 364.523 32.256C363.533 32.256 361.787 32.706 361.787 35.496V40.5H360.743ZM374.222 44.118C372.224 44.118 370.622 43.2 370.514 41.148L371.54 41.076C371.666 42.768 372.692 43.272 374.348 43.272C376.274 43.272 377.264 42.246 377.264 40.482V38.556C376.67 39.708 375.626 40.428 374.132 40.428C371.81 40.428 370.082 38.772 370.082 35.91C370.082 33.012 371.882 31.356 374.132 31.356C375.662 31.356 376.688 32.058 377.264 33.102V31.554H378.308V40.446C378.308 42.822 376.742 44.118 374.222 44.118ZM371.216 35.91C371.216 38.214 372.296 39.546 374.24 39.546C375.194 39.546 375.914 39.24 376.418 38.7C377.03 38.034 377.3 37.008 377.3 35.802C377.3 33.228 376.076 32.22 374.276 32.22C373.268 32.22 372.512 32.562 371.99 33.192C371.468 33.822 371.216 34.74 371.216 35.91Z" fill="black"/>
</svg>
